<?xml version="1.0" standalone="no"?>
<!DOCTYPE svg PUBLIC "-//W3C//DTD SVG 20010904//EN"
 "http://www.w3.org/TR/2001/REC-SVG-20010904/DTD/svg10.dtd">
<svg version="1.0" xmlns="http://www.w3.org/2000/svg"
 width="260.000000pt" height="260.000000pt" viewBox="0 0 260.000000 260.000000"
 preserveAspectRatio="xMidYMid meet">
<metadata>
Created by potrace 1.11, written by Peter Selinger 2001-2013
</metadata>
<g transform="translate(0.000000,260.000000) scale(0.100000,-0.100000)"
fill="#000000" stroke="none">
<path d="M1576 2534 c-3 -9 -6 -42 -6 -75 0 -63 15 -83 49 -62 16 10 25 84 15
131 -5 26 -48 31 -58 6z"/>
<path d="M1912 2418 c-58 -58 -82 -88 -80 -103 6 -44 41 -28 127 58 75 76 82
87 72 106 -7 11 -17 21 -24 21 -7 0 -49 -37 -95 -82z"/>
<path d="M1188 2479 c-10 -6 -18 -18 -18 -28 0 -26 166 -185 186 -177 8 3 18
6 20 6 2 0 4 9 4 20 0 11 -26 45 -58 78 -110 108 -115 112 -134 101z"/>
<path d="M1548 2282 c-109 -31 -182 -129 -182 -242 1 -74 23 -127 75 -180 21
-20 33 -44 36 -67 8 -78 53 -123 126 -129 75 -6 135 47 142 123 2 28 13 49 44
81 66 69 86 164 55 257 -39 113 -182 189 -296 157z m175 -98 c95 -70 90 -234
-10 -295 -18 -11 -33 -29 -33 -39 0 -18 -16 -27 -64 -36 -25 -4 -61 21 -51 36
3 4 -8 16 -23 26 -62 41 -85 81 -86 153 -1 48 4 65 28 99 38 56 96 84 162 79
29 -2 61 -11 77 -23z m-103 -450 c0 -8 -19 -13 -24 -6 -3 5 1 9 9 9 8 0 15 -2
15 -3z"/>
<path d="M1962 2098 c-16 -16 -15 -23 3 -42 11 -11 31 -13 76 -10 73 5 80 8
75 37 -3 20 -10 22 -72 25 -45 2 -74 -2 -82 -10z"/>
<path d="M1107 2044 c-13 -13 -7 -43 11 -52 17 -9 105 -7 130 3 7 3 12 15 10
27 -3 21 -9 23 -73 26 -39 1 -74 0 -78 -4z"/>
<path d="M965 1838 c-54 -20 -83 -47 -111 -103 -90 -186 57 -441 248 -430 188
11 249 280 104 453 -60 70 -170 107 -241 80z m177 -109 c43 -31 80 -118 80
-187 0 -113 -59 -179 -149 -169 -158 18 -200 318 -53 376 33 12 88 4 122 -20z"/>
<path d="M1729 1672 c-9 -4 -54 -41 -99 -82 -169 -153 -326 -259 -493 -332
-51 -22 -99 -42 -107 -44 -8 -2 -53 -15 -100 -28 -47 -14 -101 -28 -120 -31
-19 -3 -60 -10 -90 -15 -30 -5 -73 -11 -95 -14 -124 -17 -135 -24 -135 -80 0
-44 101 -107 210 -132 119 -27 155 -33 219 -38 30 -2 45 -9 47 -18 1 -8 5 -46
8 -84 4 -38 8 -80 10 -94 3 -14 7 -54 11 -90 12 -128 16 -165 20 -195 3 -16 8
-66 11 -110 10 -115 12 -137 13 -167 1 -36 37 -68 77 -68 53 0 71 25 94 130
31 144 86 290 109 290 15 0 21 -62 15 -170 -3 -57 -6 -106 -6 -110 -3 -30 6
-52 27 -66 22 -14 32 -15 65 -5 35 10 41 17 68 84 80 192 125 405 124 587 0
82 -10 219 -17 230 -2 4 -7 22 -10 41 -3 18 -8 35 -10 37 -2 2 27 42 65 89
152 188 223 401 155 468 -25 26 -38 29 -66 17z m14 -169 c-20 -82 -94 -206
-187 -316 -56 -65 -57 -69 -46 -100 42 -117 48 -382 11 -552 -24 -111 -62
-245 -70 -245 -3 0 -7 35 -7 78 -3 145 -29 190 -105 177 -79 -14 -126 -85
-170 -258 -12 -48 -23 -86 -25 -85 -1 2 -5 35 -8 73 -4 39 -9 86 -11 105 -4
33 -8 67 -20 188 -3 26 -9 85 -15 132 -5 47 -13 117 -16 155 -3 39 -7 71 -8
72 -1 1 -35 4 -76 8 -130 10 -371 57 -358 70 2 2 33 9 68 14 140 23 232 44
315 71 33 11 62 20 65 19 5 0 71 28 168 72 124 57 360 219 447 308 47 48 58
51 48 14z"/>
</g>
</svg>
